<svg xmlns="http://www.w3.org/2000/svg" xmlns:xlink="http://www.w3.org/1999/xlink" width="1080" zoomAndPan="magnify" viewBox="0 0 810 809.999993" height="1080" preserveAspectRatio="xMidYMid meet" version="1.0"><path fill="rgb(49.409485%, 85.099792%, 34.118652%)" d="M 463.253906 727.214844 C 463.253906 753.925781 463.253906 781.246094 463.253906 810.101562 C 421.890625 810.101562 383.308594 810.101562 341.988281 810.101562 C 341.988281 782.394531 341.988281 755.09375 341.988281 726.441406 C 227.054688 693.089844 148.6875 628.152344 134.710938 500.15625 C 179.535156 500.15625 221.011719 500.15625 264.824219 500.15625 C 275.03125 540.382812 289.804688 579.234375 338.597656 594.800781 C 338.597656 547.09375 338.597656 501.660156 338.597656 454.183594 C 238.429688 434.40625 147.46875 400.898438 144.464844 276.179688 C 142.207031 182.371094 202.390625 124.21875 339.945312 81.421875 C 339.945312 55.542969 339.945312 29.046875 339.945312 0 C 380.992188 0 420.191406 0 462.070312 0 C 462.070312 26.824219 462.070312 53.164062 462.070312 81.199219 C 575.34375 105.925781 654.132812 162.085938 662.589844 289.199219 C 617.558594 289.199219 576.855469 289.199219 535.0625 289.199219 C 524.441406 252.558594 509.726562 219.765625 464.878906 211.765625 C 464.878906 256.09375 464.878906 297.804688 464.878906 339.246094 C 623.328125 375.421875 675.527344 420.703125 674.890625 520.714844 C 674.257812 622.25 595.617188 699.785156 463.253906 727.214844 Z M 464.828125 472.785156 C 464.828125 515.84375 464.828125 556.472656 464.828125 597.246094 C 518.855469 590.332031 552.335938 563.214844 549.890625 529.230469 C 547.546875 496.589844 516.597656 475.550781 464.828125 472.785156 Z M 341.558594 212.03125 C 295.574219 221.035156 273.90625 243.703125 277.253906 276.042969 C 280.183594 304.222656 301.757812 319.433594 341.558594 319.882812 C 341.558594 284.769531 341.558594 249.660156 341.558594 212.03125 Z M 341.558594 212.03125 " fill-opacity="1" fill-rule="evenodd"/></svg>